<svg xmlns="http://www.w3.org/2000/svg" xmlns:xlink="http://www.w3.org/1999/xlink" viewBox="0 0 352.41 352.94"><defs><style>.cls-1{fill:url(#linear-gradient);}.cls-2{fill:url(#linear-gradient-2);}.cls-3{fill:url(#linear-gradient-3);}.cls-4{fill:url(#linear-gradient-4);}.cls-5{fill:url(#linear-gradient-5);}.cls-6{fill:url(#linear-gradient-6);}.cls-7{fill:url(#linear-gradient-7);}.cls-8{fill:url(#linear-gradient-9);}</style><linearGradient id="linear-gradient" x1="57.04" y1="119.19" x2="295.37" y2="119.19" gradientUnits="userSpaceOnUse"><stop offset="0" stop-color="#003b55"/><stop offset="1" stop-color="#045c80"/></linearGradient><linearGradient id="linear-gradient-2" x1="122.34" y1="120.59" x2="202.27" y2="120.59" xlink:href="#linear-gradient"/><linearGradient id="linear-gradient-3" x1="125.98" y1="74.06" x2="230.09" y2="74.06" xlink:href="#linear-gradient"/><linearGradient id="linear-gradient-4" x1="122.33" y1="136.51" x2="199.94" y2="136.51" xlink:href="#linear-gradient"/><linearGradient id="linear-gradient-5" x1="2.17" y1="286.39" x2="338.69" y2="286.39" xlink:href="#linear-gradient"/><linearGradient id="linear-gradient-6" x1="2.17" y1="285.02" x2="338.69" y2="285.02" xlink:href="#linear-gradient"/><linearGradient id="linear-gradient-7" x1="2.17" y1="286.32" x2="338.69" y2="286.32" xlink:href="#linear-gradient"/><linearGradient id="linear-gradient-9" x1="2.17" y1="286.43" x2="338.69" y2="286.43" xlink:href="#linear-gradient"/></defs><g id="Layer_2" data-name="Layer 2"><g id="Layer_1-2" data-name="Layer 1"><path class="cls-1" d="M73,178.82a117,117,0,0,0,30.09,34,113.68,113.68,0,0,0,178.76-63.29A113.77,113.77,0,0,0,62.1,90.65a114.79,114.79,0,0,0-3.49,45.11A116.87,116.87,0,0,0,73,178.82Zm0,0A119.14,119.14,0,0,1,247.93,24.06a119.16,119.16,0,0,1,46.55,80.65,119.19,119.19,0,0,1-151,129.1A119,119,0,0,1,73,178.82Z"/><path class="cls-2" d="M132.4,203.87a9.27,9.27,0,0,1-5.27-1.34c-3-1.92-4-5.6-4.7-10.9-2.51-18.87,47-147.39,49.13-152.85a2.3,2.3,0,1,1,4.3,1.66C161.61,77.34,125.05,176.32,127,191c.62,4.67,1.36,6.81,2.63,7.64,2.82,1.82,11.17-.62,26.33-5.06,10.34-3,24.5-7.18,43.43-11.91a2.3,2.3,0,1,1,1.12,4.47c-18.84,4.71-33,8.85-43.26,11.87C144.75,201.7,137.32,203.87,132.4,203.87Z"/><path class="cls-3" d="M128.29,84.54a2.31,2.31,0,0,1-1.37-4.17c1-.76,26.45-18.77,100.93-16.62a2.32,2.32,0,0,1,2.24,2.38,2.29,2.29,0,0,1-2.38,2.24c-72.58-2.16-97.82,15.55-98.07,15.73A2.34,2.34,0,0,1,128.29,84.54Z"/><path class="cls-4" d="M124.63,142.37a2.31,2.31,0,0,1-.32-4.59c2.51-.36,61.69-8.79,73.69-6.84a2.3,2.3,0,1,1-.74,4.55C188.2,134,146,139.33,125,142.35A1.83,1.83,0,0,1,124.63,142.37Z"/><path d="M46.78,348.42V334.84H42.69v-1.26h9.53v1.26H48.13v13.58Z"/><path d="M55.32,348.42V332.71H56.5v8.11a3.72,3.72,0,0,1,1.35-1.3,3.86,3.86,0,0,1,1.83-.43,3.25,3.25,0,0,1,2.38.85,3.21,3.21,0,0,1,.85,2.38v6.1H61.64v-5.55a3,3,0,0,0-.56-2,2.18,2.18,0,0,0-1.74-.65,2.53,2.53,0,0,0-2.1.84,4.28,4.28,0,0,0-.68,2.66v4.7Z"/><path d="M74.9,344H67.75a4.37,4.37,0,0,0,.87,2.74,2.71,2.71,0,0,0,2.2,1,2.93,2.93,0,0,0,1.75-.54,3.9,3.9,0,0,0,1.24-1.62l1.15.63a5,5,0,0,1-1.69,2,4.43,4.43,0,0,1-2.45.65,4.17,4.17,0,0,1-3.2-1.33A4.93,4.93,0,0,1,66.4,344a5.21,5.21,0,0,1,1.21-3.57,4.08,4.08,0,0,1,3.17-1.36,3.8,3.8,0,0,1,3,1.26,4.78,4.78,0,0,1,1.13,3.33Zm-1.48-1.06a2.57,2.57,0,0,0-2.8-2.6,2.7,2.7,0,0,0-1.9.71,2.86,2.86,0,0,0-.89,1.89Z"/><path d="M97.66,336.29a8.17,8.17,0,0,0-2.27-1.41,6.63,6.63,0,0,0-2.43-.45,6.31,6.31,0,0,0-4.68,1.82,6.5,6.5,0,0,0-1.8,4.76,7.53,7.53,0,0,0,.44,2.64,5.88,5.88,0,0,0,1.35,2.09,5.94,5.94,0,0,0,2,1.36,6.54,6.54,0,0,0,2.47.47,7.34,7.34,0,0,0,2.49-.44,8.09,8.09,0,0,0,2.3-1.29v1.59a10.38,10.38,0,0,1-2.31,1,8.93,8.93,0,0,1-2.42.36,8.47,8.47,0,0,1-3.08-.58,7.63,7.63,0,0,1-2.53-1.62,7.19,7.19,0,0,1-1.64-2.5A8.47,8.47,0,0,1,85,341a8.14,8.14,0,0,1,.58-3.1,7.16,7.16,0,0,1,1.64-2.49,7.59,7.59,0,0,1,2.52-1.6,8.7,8.7,0,0,1,5.7-.19,7.33,7.33,0,0,1,2.21,1.17Z"/><path d="M105.52,348.82a4.68,4.68,0,0,1-1.85-.38,5.35,5.35,0,0,1-1.6-1.09,4.48,4.48,0,0,1-1-1.55,4.82,4.82,0,0,1-.36-1.86,4.73,4.73,0,0,1,.37-1.87,4.79,4.79,0,0,1,1-1.56,4.85,4.85,0,0,1,3.43-1.42,4.86,4.86,0,0,1,1.89.37,4.69,4.69,0,0,1,1.59,1.05,4.62,4.62,0,0,1,1.07,1.57,4.71,4.71,0,0,1,.37,1.86,4.69,4.69,0,0,1-1.42,3.41,5.15,5.15,0,0,1-1.61,1.09A4.94,4.94,0,0,1,105.52,348.82Zm0-1.17a3.38,3.38,0,0,0,2.51-1.07,3.87,3.87,0,0,0,0-5.26,3.5,3.5,0,0,0-5,0,3.9,3.9,0,0,0,0,5.26A3.36,3.36,0,0,0,105.56,347.65Z"/><path d="M118.14,348.82a4.66,4.66,0,0,1-1.84-.38,5.35,5.35,0,0,1-1.6-1.09,4.5,4.5,0,0,1-1-1.55,5,5,0,0,1-.35-1.86,4.9,4.9,0,0,1,.36-1.87,4.82,4.82,0,0,1,1-1.56,4.85,4.85,0,0,1,3.42-1.42,4.93,4.93,0,0,1,4.56,3,4.71,4.71,0,0,1,.37,1.86,4.84,4.84,0,0,1-.36,1.85,5,5,0,0,1-1.06,1.56,5.08,5.08,0,0,1-1.62,1.09A4.87,4.87,0,0,1,118.14,348.82Zm0-1.17a3.35,3.35,0,0,0,2.51-1.07,3.62,3.62,0,0,0,1-2.62,3.67,3.67,0,0,0-1-2.64,3.5,3.5,0,0,0-5,0,3.9,3.9,0,0,0,0,5.26A3.34,3.34,0,0,0,118.18,347.65Z"/><path d="M128.05,348.42h-1.29V332.71h1.29Z"/><path d="M140.22,344h-7.15a4.44,4.44,0,0,0,.88,2.74,2.7,2.7,0,0,0,2.2,1,2.9,2.9,0,0,0,1.74-.54,3.92,3.92,0,0,0,1.25-1.62l1.14.63a5,5,0,0,1-1.68,2,4.45,4.45,0,0,1-2.45.65,4.16,4.16,0,0,1-3.2-1.33,4.89,4.89,0,0,1-1.22-3.47,5.17,5.17,0,0,1,1.21-3.57,4,4,0,0,1,3.17-1.36,3.82,3.82,0,0,1,3,1.26,4.78,4.78,0,0,1,1.12,3.33Zm-1.48-1.06a2.76,2.76,0,0,0-.82-1.92,2.82,2.82,0,0,0-2-.68,2.71,2.71,0,0,0-1.9.71,2.85,2.85,0,0,0-.88,1.89Z"/><path d="M142.83,346.82l1.19-.68a2.32,2.32,0,0,0,.85,1.13,2.4,2.4,0,0,0,1.37.38,1.84,1.84,0,0,0,1.25-.4,1.31,1.31,0,0,0,.47-1.07c0-.69-.61-1.27-1.83-1.75l-.31-.13a5.68,5.68,0,0,1-2-1.15,2,2,0,0,1-.56-1.46,2.42,2.42,0,0,1,.81-1.88,3,3,0,0,1,2.1-.74,3.43,3.43,0,0,1,1.86.48,2.76,2.76,0,0,1,1.13,1.36l-1.15.64a1.85,1.85,0,0,0-.71-1,2.12,2.12,0,0,0-1.21-.33,1.54,1.54,0,0,0-1.07.38,1.2,1.2,0,0,0-.43.95,1.16,1.16,0,0,0,.42.92,5.65,5.65,0,0,0,1.72.8,4.73,4.73,0,0,1,2,1.12,2.56,2.56,0,0,1,.51,1.69,2.49,2.49,0,0,1-.88,2,4.07,4.07,0,0,1-4.35.21A2.94,2.94,0,0,1,142.83,346.82Z"/><path d="M153.08,340.49h-1.65v-1.06h1.65v-3.69h1.23v3.69h1.81v1.06h-1.81v7.93h-1.23Z"/><path d="M168.21,349l-3.59-9.57h1.31l2.34,6.48,2.83-7,2.82,7,2.35-6.48h1.31L174,349l-2.86-7.16Z"/><path d="M187.16,348.42v-1.64a3.29,3.29,0,0,1-3.15,2,4,4,0,0,1-3.12-1.33,5.09,5.09,0,0,1-1.18-3.51,5.21,5.21,0,0,1,1.17-3.52,4,4,0,0,1,5-.86,3.21,3.21,0,0,1,1.29,1.47v-1.64h1.25v9ZM181.1,344a4.13,4.13,0,0,0,.78,2.69,2.81,2.81,0,0,0,2.25.94,2.67,2.67,0,0,0,2.23-1,4.41,4.41,0,0,0,.82-2.83,3.87,3.87,0,0,0-.81-2.6,3,3,0,0,0-4.45.06A4.24,4.24,0,0,0,181.1,344Z"/><path d="M191.56,339.43h1.33l2.58,7,2.37-7h1.33l-4.66,13.51h-1.28l1.57-4.58Z"/><path d="M213.3,348.82a4.71,4.71,0,0,1-1.85-.38,5.48,5.48,0,0,1-1.6-1.09,4.48,4.48,0,0,1-1-1.55,4.82,4.82,0,0,1-.36-1.86,4.91,4.91,0,0,1,.37-1.87,4.82,4.82,0,0,1,2.61-2.61,4.71,4.71,0,0,1,1.86-.37,5,5,0,0,1,3.49,1.42,4.76,4.76,0,0,1,1.44,3.43,4.85,4.85,0,0,1-.37,1.85,4.77,4.77,0,0,1-1.05,1.56,5.31,5.31,0,0,1-1.62,1.09A4.94,4.94,0,0,1,213.3,348.82Zm0-1.17a3.36,3.36,0,0,0,2.51-1.07,3.87,3.87,0,0,0,0-5.26,3.49,3.49,0,0,0-5,0,3.87,3.87,0,0,0,0,5.26A3.33,3.33,0,0,0,213.34,347.65Z"/><path d="M222.13,348.42v-7.93h-1.68v-1.06h1.68v-2.6a7.69,7.69,0,0,1,.51-3.51,2,2,0,0,1,1.86-.81,3.21,3.21,0,0,1,.63.06,3,3,0,0,1,.57.16l-.23,1.09a2.5,2.5,0,0,0-.47-.18,1.76,1.76,0,0,0-.42-.06,1,1,0,0,0-.94.52,4.67,4.67,0,0,0-.27,1.92v3.41h2v1.06h-2v7.93Z"/><path d="M236.64,348.42h-1.29V332.71h1.29Z"/><path d="M248.81,344h-7.15a4.43,4.43,0,0,0,.87,2.74,2.71,2.71,0,0,0,2.2,1,2.91,2.91,0,0,0,1.75-.54,3.9,3.9,0,0,0,1.24-1.62l1.15.63a5,5,0,0,1-1.69,2,4.41,4.41,0,0,1-2.45.65,4.19,4.19,0,0,1-3.2-1.33,4.93,4.93,0,0,1-1.22-3.47,5.21,5.21,0,0,1,1.21-3.57,4.08,4.08,0,0,1,3.17-1.36,3.8,3.8,0,0,1,3,1.26,4.78,4.78,0,0,1,1.13,3.33Zm-1.48-1.06a2.57,2.57,0,0,0-2.8-2.6,2.7,2.7,0,0,0-1.9.71,2.86,2.86,0,0,0-.89,1.89Z"/><path d="M259.08,348.42v-1.64a3.35,3.35,0,0,1-1.25,1.51,3.41,3.41,0,0,1-1.9.53,4,4,0,0,1-3.12-1.33,5.09,5.09,0,0,1-1.18-3.51,5.21,5.21,0,0,1,1.17-3.52,4,4,0,0,1,5-.86,3.21,3.21,0,0,1,1.29,1.47v-1.64h1.25v9ZM253,344a4.07,4.07,0,0,0,.79,2.69,2.77,2.77,0,0,0,2.24.94,2.7,2.7,0,0,0,2.24-1,4.47,4.47,0,0,0,.81-2.83,3.87,3.87,0,0,0-.81-2.6,3,3,0,0,0-4.45.06A4.24,4.24,0,0,0,253,344Z"/><path d="M266,341.23a5.58,5.58,0,0,1,1.35-1.65,2.53,2.53,0,0,1,1.55-.49,3.17,3.17,0,0,1,.53.05,3.21,3.21,0,0,1,.53.15l-.4,1.17-.42-.1a2.12,2.12,0,0,0-.42,0,2.35,2.35,0,0,0-1.92,1.05A4.2,4.2,0,0,0,266,344v4.42h-1.25v-9H266Z"/><path d="M272.29,348.42v-9h1.19v1.39a3.62,3.62,0,0,1,1.34-1.3,3.86,3.86,0,0,1,1.83-.43,3.25,3.25,0,0,1,2.38.85,3.21,3.21,0,0,1,.85,2.38v6.1h-1.26v-5.55a3,3,0,0,0-.57-2,2.17,2.17,0,0,0-1.73-.65,2.54,2.54,0,0,0-2.11.84,4.28,4.28,0,0,0-.67,2.66v4.7Z"/><path d="M283.91,335.92a.92.92,0,0,1,.29-.68.94.94,0,0,1,.68-.27,1,1,0,0,1,.68.27.92.92,0,0,1,.29.68.94.94,0,0,1-.28.68,1,1,0,0,1-.69.27,1,1,0,0,1-.69-.27A.9.9,0,0,1,283.91,335.92Zm.32,12.5v-9h1.28v9Z"/><path d="M290,348.42v-9h1.19v1.39a3.62,3.62,0,0,1,1.34-1.3,3.86,3.86,0,0,1,1.83-.43,3.25,3.25,0,0,1,2.38.85,3.21,3.21,0,0,1,.85,2.38v6.1h-1.26v-5.55a3,3,0,0,0-.57-2,2.18,2.18,0,0,0-1.74-.65,2.53,2.53,0,0,0-2.1.84,4.28,4.28,0,0,0-.67,2.66v4.7Z"/><path d="M309.72,339.43v7.43q0,1.77-.09,2.7a4.38,4.38,0,0,1-.32,1.39,3.11,3.11,0,0,1-1.43,1.5,5.33,5.33,0,0,1-2.44.49,4.88,4.88,0,0,1-2.79-.69,3,3,0,0,1-1.21-2.11H303a1.81,1.81,0,0,0,.8,1.26,3.17,3.17,0,0,0,1.75.43,3.57,3.57,0,0,0,1.49-.3,2.21,2.21,0,0,0,1-.81,2.29,2.29,0,0,0,.32-.78,7.16,7.16,0,0,0,.1-1.36v-1.82a3.37,3.37,0,0,1-1.28,1.51,3.59,3.59,0,0,1-2,.55,3.77,3.77,0,0,1-3-1.32,6,6,0,0,1,0-7.07,3.85,3.85,0,0,1,3.06-1.34,3.56,3.56,0,0,1,1.93.55,3.13,3.13,0,0,1,1.25,1.47v-1.68Zm-4.3.81a2.67,2.67,0,0,0-2.2,1,5.08,5.08,0,0,0,0,5.44,2.54,2.54,0,0,0,2.12,1,2.88,2.88,0,0,0,2.31-1,4.15,4.15,0,0,0,.87-2.76,4,4,0,0,0-.82-2.67A2.76,2.76,0,0,0,305.42,340.24Z"/><path class="cls-5" d="M8.94,266.39v16H27.77v7.3H8.94V306.4H30.12v7.29H0V259.1H30.12v7.29Z"/><path class="cls-6" d="M55.73,280.35a19.7,19.7,0,0,1,17.76-10.58,20.27,20.27,0,0,1,8.36,1.84,17.13,17.13,0,0,1,6.55,4.9V255.65h9v58h-9v-6.51a16.81,16.81,0,0,1-6.08,5.18,19,19,0,0,1-8.9,2,19.34,19.34,0,0,1-10.32-2.87,20.09,20.09,0,0,1-7.37-8A24.51,24.51,0,0,1,53,291.88,23.89,23.89,0,0,1,55.73,280.35Zm30.82,3.93a12.82,12.82,0,0,0-4.82-5,12.63,12.63,0,0,0-6.43-1.73A12.72,12.72,0,0,0,64,284.16a15.39,15.39,0,0,0-1.84,7.72A16.12,16.12,0,0,0,64,299.73a13,13,0,0,0,4.87,5.14,12.68,12.68,0,0,0,12.82,0,12.87,12.87,0,0,0,4.82-5.06A15.91,15.91,0,0,0,88.4,292,15.6,15.6,0,0,0,86.55,284.28Z"/><path class="cls-7" d="M124.83,272A26.56,26.56,0,0,1,135,262a29.72,29.72,0,0,1,29.49.71,24.35,24.35,0,0,1,9.85,12.11H163.54a14.41,14.41,0,0,0-5.88-6.43,17.5,17.5,0,0,0-8.71-2.12,19.06,19.06,0,0,0-9.65,2.43,17,17,0,0,0-6.63,7,24.63,24.63,0,0,0,0,21.17,17.16,17.16,0,0,0,6.63,7A18.79,18.79,0,0,0,149,306.4a17.5,17.5,0,0,0,8.71-2.12,14.46,14.46,0,0,0,5.88-6.43h10.75a24.23,24.23,0,0,1-9.85,12.08A28.64,28.64,0,0,1,149,314.16a28.19,28.19,0,0,1-14-3.57,26.52,26.52,0,0,1-10.08-9.92,29.49,29.49,0,0,1,0-28.71Z"/><path class="cls-5" d="M208.56,266.39v16h18.83v7.3H208.56V306.4h21.18v7.29H199.62V259.1h30.12v7.29Z"/><path class="cls-8" d="M291.78,283.26a14.7,14.7,0,0,1-6.27,6,23.33,23.33,0,0,1-11.06,2.31h-9.88v22.12h-8.95V259.18h18.83a23.89,23.89,0,0,1,10.63,2.15,15,15,0,0,1,6.51,5.85,16,16,0,0,1,2.15,8.23A16.46,16.46,0,0,1,291.78,283.26Zm-9.72-1.3a8.46,8.46,0,0,0,2.51-6.55q0-8.94-10.12-8.94h-9.88v17.81h9.88C277.85,284.28,280.38,283.51,282.06,282Z"/><path class="cls-8" d="M352.41,259.18v7.29H337.9v47.22H329V266.47H314.37v-7.29Z"/></g></g></svg>